<svg width="48" height="48" viewBox="0 0 48 48" fill="none" xmlns="http://www.w3.org/2000/svg">
<circle cx="24" cy="24" r="23.4286" fill="#FFF6DF" stroke="#AA5F26" stroke-width="1.14286"/>
<rect width="30.2857" height="30.2857" transform="translate(8.57153 9.14285)" fill="#FFF6DF"/>
<path d="M16.6901 19.9501L16.6261 19.8867C16.3524 19.4671 15.9945 19.109 15.5751 18.835C15.1557 18.561 14.6839 18.3772 14.1897 18.2951C14.027 18.2707 13.8626 18.2583 13.698 18.2582C13.1919 18.2547 12.6935 18.3826 12.2516 18.6293L12.031 18.755L12.1065 18.9972C12.4731 20.175 14.3515 22.3639 16.4601 23.1128L16.9096 23.2724L16.7167 20.0896L16.6901 19.9501Z" fill="#F8BB25"/>
<path d="M35.177 18.6293C34.7351 18.3826 34.2367 18.2547 33.7306 18.2581C33.5661 18.2582 33.4019 18.2706 33.2392 18.2951C32.745 18.3771 32.2733 18.5609 31.8539 18.8348C31.4345 19.1087 31.0766 19.4668 30.8029 19.8863L30.7194 19.9658L30.519 23.2726L30.9685 23.113C33.077 22.364 34.9554 20.1751 35.3221 18.9973L35.3976 18.7552L35.177 18.6293Z" fill="#F8BB25"/>
<path d="M19.8025 35.9584C19.4038 35.9574 19.0202 35.8055 18.7288 35.5333C18.4375 35.261 18.2601 34.8885 18.2323 34.4907L17.2227 18.0841C17.2062 17.8669 17.2356 17.6486 17.3092 17.4436C17.3827 17.2385 17.4987 17.0513 17.6495 16.8941C17.7971 16.7373 17.9752 16.6123 18.173 16.5271C18.3708 16.4419 18.584 16.3983 18.7993 16.3988H19.2978C19.3814 16.3988 19.4617 16.3655 19.5208 16.3064C19.58 16.2472 19.6132 16.167 19.6133 16.0834V13.5596C19.6133 13.3085 19.713 13.0678 19.8905 12.8903C20.068 12.7128 20.3087 12.6131 20.5597 12.6131C20.8107 12.6131 21.0514 12.7128 21.2289 12.8903C21.4064 13.0678 21.5061 13.3085 21.5061 13.5596V16.0834C21.5062 16.167 21.5394 16.2472 21.5986 16.3064C21.6577 16.3655 21.7379 16.3988 21.8216 16.3988H25.6073C25.691 16.3988 25.7712 16.3655 25.8303 16.3064C25.8895 16.2472 25.9227 16.167 25.9228 16.0834V13.5596C25.9228 13.3085 26.0225 13.0678 26.2 12.8903C26.3775 12.7128 26.6182 12.6131 26.8692 12.6131C27.1202 12.6131 27.361 12.7128 27.5384 12.8903C27.7159 13.0678 27.8156 13.3085 27.8156 13.5596V16.0834C27.8157 16.167 27.8489 16.2472 27.9081 16.3064C27.9673 16.3655 28.0475 16.3988 28.1311 16.3988H28.6296C28.8462 16.3987 29.0606 16.4431 29.2594 16.5294C29.4581 16.6157 29.637 16.7419 29.7848 16.9003C29.9327 17.0586 30.0464 17.2457 30.1189 17.4499C30.1913 17.6541 30.221 17.871 30.206 18.0871L29.1967 34.4824C29.1694 34.8823 28.9915 35.2569 28.6989 35.5307C28.4063 35.8046 28.0208 35.9574 27.62 35.9584H19.8025ZM25.6073 30.9107C25.5237 30.9108 25.4434 30.9441 25.3843 31.0032C25.3251 31.0624 25.2919 31.1426 25.2918 31.2262V32.4881C25.2918 32.5718 25.3251 32.652 25.3842 32.7112C25.4434 32.7704 25.5236 32.8036 25.6073 32.8036C25.691 32.8036 25.7712 32.7704 25.8304 32.7112C25.8895 32.652 25.9228 32.5718 25.9228 32.4881V31.2262C25.9227 31.1426 25.8895 31.0624 25.8303 31.0032C25.7712 30.9441 25.691 30.9108 25.6073 30.9107ZM21.8216 30.9107C21.7379 30.9108 21.6577 30.9441 21.5986 31.0032C21.5394 31.0624 21.5062 31.1426 21.5061 31.2262V32.4881C21.5061 32.5718 21.5394 32.652 21.5985 32.7112C21.6577 32.7704 21.7379 32.8036 21.8216 32.8036C21.9053 32.8036 21.9855 32.7704 22.0447 32.7112C22.1038 32.652 22.1371 32.5718 22.1371 32.4881V31.2262C22.137 31.1426 22.1038 31.0624 22.0446 31.0032C21.9855 30.9441 21.9052 30.9108 21.8216 30.9107ZM26.8692 20.8155C26.451 20.816 26.0501 20.9823 25.7544 21.2781C25.4587 21.5738 25.2923 21.9747 25.2918 22.3929V23.6548C25.2918 23.7385 25.3251 23.8187 25.3842 23.8779C25.4434 23.937 25.5236 23.9703 25.6073 23.9703C25.691 23.9703 25.7712 23.937 25.8304 23.8779C25.8895 23.8187 25.9228 23.7385 25.9228 23.6548V22.3929C25.9231 22.142 26.0229 21.9014 26.2003 21.724C26.3777 21.5465 26.6183 21.4467 26.8692 21.4465C26.9529 21.4465 27.0331 21.4132 27.0923 21.3541C27.1515 21.2949 27.1847 21.2147 27.1847 21.131C27.1847 21.0473 27.1515 20.9671 27.0923 20.9079C27.0331 20.8487 26.9529 20.8155 26.8692 20.8155ZM20.5597 20.8155C20.476 20.8155 20.3958 20.8487 20.3366 20.9079C20.2775 20.9671 20.2442 21.0473 20.2442 21.131C20.2442 21.2147 20.2775 21.2949 20.3366 21.3541C20.3958 21.4132 20.476 21.4465 20.5597 21.4465C20.8106 21.4467 21.0512 21.5465 21.2286 21.724C21.406 21.9014 21.5058 22.142 21.5061 22.3929V23.6548C21.5061 23.7385 21.5394 23.8187 21.5985 23.8779C21.6577 23.937 21.7379 23.9703 21.8216 23.9703C21.9053 23.9703 21.9855 23.937 22.0447 23.8779C22.1038 23.8187 22.1371 23.7385 22.1371 23.6548V22.3929C22.1366 21.9747 21.9702 21.5738 21.6745 21.2781C21.3788 20.9823 20.9779 20.816 20.5597 20.8155Z" fill="#F8BB25"/>
<path d="M21.8216 30.5953C21.6544 30.5958 21.4942 30.6624 21.376 30.7806C21.2578 30.8988 21.1912 31.059 21.1907 31.2262V32.4881C21.1907 32.6555 21.2571 32.816 21.3755 32.9343C21.4938 33.0526 21.6543 33.1191 21.8216 33.1191C21.989 33.1191 22.1495 33.0526 22.2678 32.9343C22.3861 32.816 22.4526 32.6555 22.4526 32.4881V31.2262C22.4521 31.059 22.3855 30.8988 22.2672 30.7806C22.149 30.6624 21.9888 30.5958 21.8216 30.5953Z" fill="#8D4C15"/>
<path d="M25.6073 30.5953C25.4401 30.5958 25.2799 30.6624 25.1617 30.7806C25.0434 30.8988 24.9768 31.059 24.9763 31.2262V32.4881C24.9763 32.6555 25.0428 32.816 25.1611 32.9343C25.2794 33.0526 25.4399 33.1191 25.6073 33.1191C25.7746 33.1191 25.9351 33.0526 26.0534 32.9343C26.1717 32.816 26.2382 32.6555 26.2382 32.4881V31.2262C26.2377 31.059 26.1711 30.8988 26.0529 30.7806C25.9347 30.6624 25.7745 30.5958 25.6073 30.5953Z" fill="#8D4C15"/>
<path d="M20.5597 20.5001C20.3923 20.5001 20.2318 20.5665 20.1135 20.6849C19.9952 20.8032 19.9287 20.9637 19.9287 21.131C19.9287 21.2984 19.9952 21.4588 20.1135 21.5772C20.2318 21.6955 20.3923 21.762 20.5597 21.762C20.7269 21.7625 20.8871 21.8291 21.0053 21.9473C21.1235 22.0655 21.1901 22.2257 21.1906 22.3929V23.6548C21.1906 23.8222 21.2571 23.9826 21.3754 24.101C21.4937 24.2193 21.6542 24.2858 21.8216 24.2858C21.9889 24.2858 22.1494 24.2193 22.2677 24.101C22.386 23.9826 22.4525 23.8222 22.4525 23.6548V22.3929C22.4511 21.8914 22.2512 21.4107 21.8965 21.0561C21.5418 20.7014 21.0612 20.5015 20.5597 20.5001Z" fill="#874B15"/>
<path d="M26.8692 20.5001C26.3676 20.5015 25.887 20.7014 25.5324 21.0561C25.1777 21.4108 24.9778 21.8914 24.9763 22.3929V23.6548C24.9763 23.8222 25.0428 23.9826 25.1611 24.101C25.2794 24.2193 25.4399 24.2858 25.6073 24.2858C25.7746 24.2858 25.9351 24.2193 26.0534 24.101C26.1717 23.9826 26.2382 23.8222 26.2382 23.6548V22.3929C26.2387 22.2257 26.3053 22.0655 26.4236 21.9473C26.5418 21.8291 26.702 21.7625 26.8692 21.762C27.0365 21.762 27.197 21.6955 27.3153 21.5772C27.4337 21.4588 27.5001 21.2984 27.5001 21.131C27.5001 20.9637 27.4337 20.8032 27.3153 20.6849C27.197 20.5665 27.0365 20.5001 26.8692 20.5001Z" fill="#874B15"/>
<path d="M36.0935 18.115C35.6735 17.7907 35.1913 17.5561 34.6768 17.4258C34.1624 17.2956 33.6266 17.2725 33.1028 17.3579C32.3904 17.4718 31.7179 17.7625 31.1469 18.2034V18.1466C31.1693 17.8129 31.1252 17.4781 31.0171 17.1617C30.909 16.8453 30.739 16.5535 30.517 16.3034C30.2951 16.0533 30.0256 15.8498 29.7243 15.7048C29.423 15.5597 29.0958 15.4761 28.7619 15.4587V13.5595C28.7619 13.0575 28.5625 12.5761 28.2075 12.2211C27.8525 11.8661 27.371 11.6667 26.869 11.6667C26.367 11.6667 25.8856 11.8661 25.5306 12.2211C25.1756 12.5761 24.9762 13.0575 24.9762 13.5595V15.4524H22.4524V13.5595C22.4524 13.0575 22.2529 12.5761 21.898 12.2211C21.543 11.8661 21.0615 11.6667 20.5595 11.6667C20.0575 11.6667 19.576 11.8661 19.221 12.2211C18.8661 12.5761 18.6666 13.0575 18.6666 13.5595V15.4587C18.3327 15.4761 18.0055 15.5597 17.7042 15.7047C17.4029 15.8498 17.1334 16.0532 16.9115 16.3034C16.6895 16.5535 16.5196 16.8453 16.4114 17.1617C16.3033 17.4781 16.2592 17.8129 16.2816 18.1466V18.2034C15.7106 17.7625 15.0381 17.4718 14.3257 17.3579C13.8019 17.2721 13.2661 17.295 12.7516 17.4253C12.237 17.5555 11.7548 17.7903 11.335 18.115C11.2606 18.1738 11.2005 18.2485 11.159 18.3337C11.1175 18.4189 11.0957 18.5124 11.0952 18.6072C11.0952 20.2224 13.7894 23.4087 16.6476 24.1406L17.2912 34.5513C17.3351 35.1883 17.6184 35.785 18.0843 36.2215C18.5501 36.6581 19.1639 36.9022 19.8024 36.9048H27.6199C28.2606 36.9024 28.8768 36.6578 29.3449 36.2202C29.8129 35.7826 30.0983 35.1842 30.1437 34.545L30.7809 24.1406C33.6391 23.4087 36.3333 20.2224 36.3333 18.6072C36.3329 18.5124 36.3111 18.4189 36.2696 18.3337C36.2281 18.2485 36.1679 18.1738 36.0935 18.115ZM12.4076 18.9037C12.9362 18.6126 13.5475 18.5081 14.1427 18.6072C14.5989 18.6842 15.0339 18.8559 15.4197 19.1113C15.8055 19.3667 16.1335 19.7 16.3826 20.0899L16.4015 20.1088L16.5656 22.8156C14.5402 22.0963 12.7357 19.9574 12.4076 18.9037ZM28.8818 34.463C28.8596 34.7828 28.717 35.0823 28.4829 35.3012C28.2488 35.5201 27.9404 35.6422 27.6199 35.6429H19.8024C19.4835 35.6423 19.1767 35.5209 18.9437 35.3031C18.7107 35.0854 18.5689 34.7874 18.5468 34.4693L17.5372 18.0645C17.524 17.8907 17.5474 17.716 17.6061 17.5519C17.6648 17.3877 17.7575 17.2378 17.878 17.1118C17.9963 16.9862 18.139 16.8861 18.2974 16.8178C18.4559 16.7494 18.6266 16.7142 18.7991 16.7143H19.2976C19.4648 16.7138 19.625 16.6472 19.7432 16.529C19.8614 16.4107 19.9281 16.2505 19.9285 16.0834V13.5595C19.9285 13.3922 19.995 13.2317 20.1133 13.1134C20.2317 12.9951 20.3922 12.9286 20.5595 12.9286C20.7268 12.9286 20.8873 12.9951 21.0057 13.1134C21.124 13.2317 21.1905 13.3922 21.1905 13.5595V16.0834C21.1909 16.2505 21.2576 16.4107 21.3758 16.529C21.494 16.6472 21.6542 16.7138 21.8214 16.7143H25.6071C25.7743 16.7138 25.9345 16.6472 26.0527 16.529C26.1709 16.4107 26.2376 16.2505 26.2381 16.0834V13.5595C26.2381 13.3922 26.3045 13.2317 26.4229 13.1134C26.5412 12.9951 26.7017 12.9286 26.869 12.9286C27.0364 12.9286 27.1968 12.9951 27.3152 13.1134C27.4335 13.2317 27.5 13.3922 27.5 13.5595V16.0834C27.5005 16.2505 27.5671 16.4107 27.6853 16.529C27.8035 16.6472 27.9637 16.7138 28.1309 16.7143H28.6294C28.8027 16.7142 28.9742 16.7497 29.1332 16.8187C29.2923 16.8876 29.4354 16.9886 29.5537 17.1152C29.6721 17.2419 29.7631 17.3915 29.8212 17.5548C29.8793 17.7181 29.9031 17.8916 29.8913 18.0645L28.8818 34.463ZM30.863 22.8156L31.027 20.1088L31.0459 20.0899C31.295 19.7 31.623 19.3667 32.0088 19.1113C32.3946 18.8559 32.8296 18.6842 33.2858 18.6072C33.8811 18.5081 34.4923 18.6126 35.0209 18.9037C34.6928 19.9574 32.8883 22.0963 30.863 22.8156Z" fill="#AA5F26"/>
</svg>
